<?xml version="1.0" encoding="utf-8"?>
<!-- Generator: Adobe Illustrator 26.5.0, SVG Export Plug-In . SVG Version: 6.00 Build 0)  -->
<svg version="1.1" id="Layer_1" xmlns="http://www.w3.org/2000/svg" xmlns:xlink="http://www.w3.org/1999/xlink" x="0px" y="0px"
	 viewBox="0 0 1024 1024" style="enable-background:new 0 0 1024 1024;" xml:space="preserve">
<style type="text/css">
	.st0{fill:#616261;}
</style>
<path class="st0" d="M895.95,0H128.05C57.33,0,0,57.33,0,128.05v767.91C0,966.67,57.33,1024,128.05,1024h767.91
	c70.72,0,128.05-57.33,128.05-128.05V128.05C1024,57.33,966.67,0,895.95,0z M735.9,767.7H287.85c-26.24,0-41.28-30.08-25.6-51.21
	l185.62-247.38V335.65l-43.2-54.09c-8.32-10.56-0.96-25.92,12.48-25.92H606.6c13.44,0,20.8,15.36,12.48,25.92l-43.2,54.09v133.45
	L761.5,716.49C777.18,737.61,762.14,767.7,735.9,767.7z"/>
</svg>
